Coordinates
version=1
nRows=11
nColumns=40
inDegrees=yes

Units are S.I. units (second, meters, Newtons, ...)
Angles are in degrees.

endheader
time	pelvis_tilt	pelvis_list	pelvis_rotation	pelvis_tx	pelvis_ty	pelvis_tz	hip_flexion_r	hip_adduction_r	hip_rotation_r	knee_angle_r	knee_angle_r_beta	ankle_angle_r	subtalar_angle_r	mtp_angle_r	hip_flexion_l	hip_adduction_l	hip_rotation_l	knee_angle_l	knee_angle_l_beta	ankle_angle_l	subtalar_angle_l	mtp_angle_l	lumbar_extension	lumbar_bending	lumbar_rotation	arm_flex_r	arm_add_r	arm_rot_r	elbow_flex_r	pro_sup_r	wrist_flex_r	wrist_dev_r	arm_flex_l	arm_add_l	arm_rot_l	elbow_flex_l	pro_sup_l	wrist_flex_l	wrist_dev_l
     35.03750000	     -7.48769331	     -5.17760084	      0.29670199	      0.99169501	      0.91013799	      0.47844626	      0.51237006	     -1.83984634	    -13.51381226	     29.97004606	     29.97004606	     14.81615874	      5.49475046	    -11.70512999	     33.39575081	     -5.91898730	      1.82664502	     29.86837095	     29.86837095	      7.20022488	    -15.01778759	      7.40919599	     -8.92172544	      3.63001010	      4.96196188	     40.00434175	    -15.62907849	      3.05528442	     90.90652774	     45.47179121	      0.00000000	      0.00000000	    -10.02770832	     -7.42480590	      2.39821715	     32.46196073	     44.24588000	      0.00000000	      0.00000000
     35.04885714	     -7.55820800	     -5.27771427	      0.07402001	      0.99223946	      0.91172667	      0.47654707	      2.09328509	     -2.11565174	    -12.51921199	     33.09136317	     33.09136317	     10.98456791	      1.88488176	    -17.76763990	     32.73185792	     -5.97304300	      1.75176325	     29.73282310	     29.73282310	      7.97664920	    -14.95283689	      8.07666534	     -8.90082751	      3.73514347	      4.40495537	     39.37490505	    -14.57120467	      1.77700259	     86.15654195	     45.61591089	      0.00000000	      0.00000000	     -9.82828399	     -7.94162494	      2.82809613	     34.37795068	     44.34789625	      0.00000000	      0.00000000
     35.06021429	     -7.53052849	     -5.12888228	     -0.24033098	      0.99269449	      0.91319712	      0.47462620	      4.09382659	     -2.89900267	    -11.84120809	     37.36324988	     37.36324988	      9.21677214	     -0.04115953	    -17.78694768	     31.87922163	     -5.88032003	      1.26622940	     29.48924627	     29.48924627	      8.46523575	    -14.80636722	      7.85181764	     -9.10145857	      3.60118755	      4.45255159	     37.87751906	    -14.84477800	      1.47042344	     84.39385917	     45.67201038	      0.00000000	      0.00000000	     -8.79403109	     -8.16072647	      2.73860826	     34.94836352	     44.38772785	      0.00000000	      0.00000000
     35.07157143	     -7.53641199	     -5.21094979	     -0.52390496	      0.99296122	      0.91460976	      0.47307763	      6.28429815	     -3.08599647	    -10.63962499	     41.61767715	     41.61767715	      7.32201599	     -3.17275960	    -16.70994793	     31.10894364	     -6.03955770	      0.87835234	     29.25979408	     29.25979408	      8.84910010	    -14.49803406	      7.39288597	     -9.17408808	      3.71958779	      4.39979315	     36.81597191	    -14.39257781	      0.16068620	     80.52750209	     45.81770273	      0.00000000	      0.00000000	     -7.89190443	     -8.52490172	      2.69237651	     35.94876918	     44.45477642	      0.00000000	      0.00000000
     35.08292857	     -7.55319122	     -5.11931216	     -0.79360750	      0.99307836	      0.91580991	      0.47155154	      8.68460159	     -3.56408756	     -9.81206882	     46.13684443	     46.13684443	      6.09490917	     -5.17983526	    -14.01860505	     30.31244249	     -6.05523974	      0.27701820	     28.94594547	     28.94594547	      9.10179938	    -14.10355272	      6.66444697	     -9.21729492	      3.61259642	      3.82285397	     36.07824063	    -13.63156768	     -0.63590370	     76.39480813	     45.92841847	      0.00000000	      0.00000000	     -7.30046828	     -9.00691810	      2.52646948	     37.31157969	     44.59168664	      0.00000000	      0.00000000
     35.09428571	     -7.48662524	     -4.87679889	     -1.02000043	      0.99310086	      0.91695776	      0.46993372	     10.99626718	     -4.19060318	     -9.12581392	     50.38048750	     50.38048750	      4.32790896	     -7.33594491	    -13.26080221	     29.43455869	     -5.88271327	     -0.34919523	     28.65149691	     28.65149691	      9.51280439	    -13.70526381	      6.41375543	     -9.46986964	      3.38357353	      3.71338955	     34.48773323	    -13.90914503	     -0.69829314	     74.80944260	     45.97039533	      0.00000000	      0.00000000	     -6.02763828	     -9.44361379	      2.34677166	     37.94371708	     44.64189295	      0.00000000	      0.00000000
     35.10564286	     -7.52479920	     -4.74910421	     -1.27049382	      0.99298535	      0.91794143	      0.46862816	     13.48122776	     -4.45017185	     -8.23002732	     54.43186988	     54.43186988	      2.84170542	     -9.80896301	    -11.75686114	     28.67179461	     -5.88169026	     -1.03299560	     28.33450557	     28.33450557	      9.93655442	    -13.07825921	      6.03577230	     -9.51751756	      3.26393084	      3.80073823	     32.88265730	    -14.27023085	     -1.04240951	     72.37483785	     46.04852321	      0.00000000	      0.00000000	     -4.75994561	     -9.87546923	      2.17391877	     38.68352896	     44.69405848	      0.00000000	      0.00000000
     35.11700000	     -7.43324881	     -4.75013156	     -1.42329160	      0.99287691	      0.91902840	      0.46739924	     15.97912660	     -4.59020764	     -7.59913799	     58.71563964	     58.71563964	      4.17856582	    -10.28506707	     -2.98536785	     27.81276911	     -6.02120540	     -1.71849757	     28.05816693	     28.05816693	     10.19697373	    -12.25493636	      4.88404431	     -9.59015639	      3.30169479	      2.92505285	     32.82844752	    -13.12371436	     -2.14963700	     66.14380106	     46.19311716	      0.00000000	      0.00000000	     -4.11518755	    -10.48334935	      1.95027778	     40.21404504	     44.89696025	      0.00000000	      0.00000000
     35.12835714	     -7.35835707	     -4.50437376	     -1.52957941	      0.99273994	      0.92002721	      0.46598286	     18.21123789	     -5.02947139	     -7.14104632	     62.06324426	     62.06324426	      3.08758421	    -11.94787649	     -2.55815302	     26.93071937	     -5.82670925	     -2.36560264	     27.71409349	     27.71409349	     10.66560699	    -11.61957004	      4.60344219	     -9.79755209	      3.11086231	      2.66624461	     31.02426070	    -13.43546175	     -2.16038116	     64.62080543	     46.22987475	      0.00000000	      0.00000000	     -2.69471886	    -11.01451739	      1.75844234	     40.76171102	     44.94798689	      0.00000000	      0.00000000
     35.13971429	     -7.26302647	     -4.45392981	     -1.63503060	      0.99262433	      0.92106873	      0.46483906	     20.41534026	     -5.16361722	     -6.73976749	     65.14907405	     65.14907405	      3.02842666	    -13.08257291	      0.24482079	     26.06210661	     -5.96643167	     -3.28765679	     27.45163900	     27.45163900	     11.24852733	    -10.15366941	      3.79579885	     -9.84689047	      3.11221511	      2.43950786	     30.11532387	    -13.28064693	     -3.02845381	     59.80903390	     46.36837866	      0.00000000	      0.00000000	     -1.06072877	    -11.54680401	      2.03021229	     41.02176395	     45.01644707	      0.00000000	      0.00000000
     35.15107143	     -7.15392392	     -4.30786410	     -1.67450161	      0.99243602	      0.92216454	      0.46360576	     22.44813130	     -5.46821517	     -6.50647818	     67.67819597	     67.67819597	      2.67305800	    -14.09487698	      0.86119817	     25.13371050	     -5.84733969	     -3.81511611	     27.04857944	     27.04857944	     11.66767903	     -9.45347653	      3.52178143	    -10.06034079	      3.04375250	      2.46360675	     28.26939893	    -13.86339550	     -3.09264374	     57.52050726	     46.41933377	      0.00000000	      0.00000000	      0.56714670	    -11.99201789	      1.92833407	     41.82098547	     45.07867541	      0.00000000	      0.00000000
